<?xml version="1.0" encoding="utf-8"?>
<!-- Generated by Mocodo 4.3.2 -->
<svg width="1026" height="602" viewBox="0 0 1026 602" xmlns="http://www.w3.org/2000/svg">
<rect x="0" y="0" width="1026" height="602" fill="#f7f7f7" stroke="none" stroke-width="0"/>

<!-- Association AVOIR_HORAIRE -->
<g>
	<line x1="446" y1="60" x2="259" y2="60" stroke="#e08214" stroke-width="2"/>
	<line x1="88" y1="60" x2="259" y2="60" stroke="#e08214" stroke-width="2"/>
	<g>
		<path d="M304 35 a14 14 90 0 1 14 14 V60 h-118 V49 a14 14 90 0 1 14 -14" fill="#fdb863" stroke="#fdb863" stroke-width="0"/>
		<path d="M318 60 v11 a14 14 90 0 1 -14 14 H214 a14 14 90 0 1 -14 -14 V60 H118" fill="#fee0b6" stroke="#fee0b6" stroke-width="0"/>
		<rect x="200" y="35" width="118" height="50" fill="none" rx="14" stroke="#e08214" stroke-width="2"/>
		<line x1="200" y1="60" x2="318" y2="60" stroke="#e08214" stroke-width="1"/>
		<text x="207" y="52.75" fill="#000000" font-family="Verdana" font-size="12">AVOIR_HORAIRE</text>
	</g>
	<text x="355" y="77" fill="#542788" font-family="Verdana" font-size="12">1,1</text>
	<text x="137" y="77" fill="#542788" font-family="Verdana" font-size="12">0,N</text>
</g>

<!-- Association AVOIR_CONDITION -->
<g>
	<line x1="446" y1="356" x2="629" y2="60" stroke="#e08214" stroke-width="2"/>
	<line x1="794" y1="60" x2="629" y2="60" stroke="#e08214" stroke-width="2"/>
	<g>
		<path d="M682 35 a14 14 90 0 1 14 14 V60 h-134 V49 a14 14 90 0 1 14 -14" fill="#fdb863" stroke="#fdb863" stroke-width="0"/>
		<path d="M696 60 v11 a14 14 90 0 1 -14 14 H576 a14 14 90 0 1 -14 -14 V60 H134" fill="#fee0b6" stroke="#fee0b6" stroke-width="0"/>
		<rect x="562" y="35" width="134" height="50" fill="none" rx="14" stroke="#e08214" stroke-width="2"/>
		<line x1="562" y1="60" x2="696" y2="60" stroke="#e08214" stroke-width="1"/>
		<text x="569" y="52.75" fill="#000000" font-family="Verdana" font-size="12">AVOIR_CONDITION</text>
	</g>
	<text x="524" y="250.15" fill="#542788" font-family="Verdana" font-size="12">1,1</text>
	<text x="701" y="77" fill="#542788" font-family="Verdana" font-size="12">1,N</text>
</g>

<!-- Association AVOIR_GABARIT -->
<g>
	<line x1="446" y1="356" x2="259" y2="170" stroke="#e08214" stroke-width="2"/>
	<line x1="88" y1="170" x2="259" y2="170" stroke="#e08214" stroke-width="2"/>
	<g>
		<path d="M304 145 a14 14 90 0 1 14 14 V170 h-118 V159 a14 14 90 0 1 14 -14" fill="#fdb863" stroke="#fdb863" stroke-width="0"/>
		<path d="M318 170 v11 a14 14 90 0 1 -14 14 H214 a14 14 90 0 1 -14 -14 V170 H118" fill="#fee0b6" stroke="#fee0b6" stroke-width="0"/>
		<rect x="200" y="145" width="118" height="50" fill="none" rx="14" stroke="#e08214" stroke-width="2"/>
		<line x1="200" y1="170" x2="318" y2="170" stroke="#e08214" stroke-width="1"/>
		<text x="208" y="162.75" fill="#000000" font-family="Verdana" font-size="12">AVOIR_GABARIT</text>
	</g>
	<text x="347" y="293.35" fill="#542788" font-family="Verdana" font-size="12">1,1</text>
	<text x="172" y="187" fill="#542788" font-family="Verdana" font-size="12">1,N</text>
</g>

<!-- Association AVOIR -->
<g>
	<line x1="446" y1="60" x2="446" y2="170" stroke="#e08214" stroke-width="2"/>
	<line x1="446" y1="356" x2="446" y2="170" stroke="#e08214" stroke-width="2"/>
	<g>
		<path d="M459 145 a14 14 90 0 1 14 14 V170 h-54 V159 a14 14 90 0 1 14 -14" fill="#fdb863" stroke="#fdb863" stroke-width="0"/>
		<path d="M473 170 v11 a14 14 90 0 1 -14 14 H433 a14 14 90 0 1 -14 -14 V170 H54" fill="#fee0b6" stroke="#fee0b6" stroke-width="0"/>
		<rect x="419" y="145" width="54" height="50" fill="none" rx="14" stroke="#e08214" stroke-width="2"/>
		<line x1="419" y1="170" x2="473" y2="170" stroke="#e08214" stroke-width="1"/>
		<text x="426" y="162.75" fill="#000000" font-family="Verdana" font-size="12">AVOIR</text>
	</g>
	<text x="451" y="119" fill="#542788" font-family="Verdana" font-size="12">1,1</text>
	<text x="451" y="212" fill="#542788" font-family="Verdana" font-size="12">0,N</text>
</g>

<!-- Association AVOIR_PMR -->
<g>
	<line x1="446" y1="356" x2="629" y2="170" stroke="#e08214" stroke-width="2"/>
	<line x1="794" y1="170" x2="629" y2="170" stroke="#e08214" stroke-width="2"/>
	<g>
		<path d="M659 145 a14 14 90 0 1 14 14 V170 h-88 V159 a14 14 90 0 1 14 -14" fill="#fdb863" stroke="#fdb863" stroke-width="0"/>
		<path d="M673 170 v11 a14 14 90 0 1 -14 14 H599 a14 14 90 0 1 -14 -14 V170 H88" fill="#fee0b6" stroke="#fee0b6" stroke-width="0"/>
		<rect x="585" y="145" width="88" height="50" fill="none" rx="14" stroke="#e08214" stroke-width="2"/>
		<line x1="585" y1="170" x2="673" y2="170" stroke="#e08214" stroke-width="1"/>
		<text x="592" y="162.75" fill="#000000" font-family="Verdana" font-size="12">AVOIR_PMR</text>
	</g>
	<text x="524" y="291.81" fill="#542788" font-family="Verdana" font-size="12">1,1</text>
	<text x="698" y="187" fill="#542788" font-family="Verdana" font-size="12">1,N</text>
</g>

<!-- Association AVOIR_RACCORDEMENT -->
<g>
	<line x1="446" y1="356" x2="259" y2="356" stroke="#e08214" stroke-width="2"/>
	<line x1="88" y1="356" x2="259" y2="356" stroke="#e08214" stroke-width="2"/>
	<g>
		<path d="M327 331 a14 14 90 0 1 14 14 V356 h-164 V345 a14 14 90 0 1 14 -14" fill="#fdb863" stroke="#fdb863" stroke-width="0"/>
		<path d="M341 356 v11 a14 14 90 0 1 -14 14 H191 a14 14 90 0 1 -14 -14 V356 H164" fill="#fee0b6" stroke="#fee0b6" stroke-width="0"/>
		<rect x="177" y="331" width="164" height="50" fill="none" rx="14" stroke="#e08214" stroke-width="2"/>
		<line x1="177" y1="356" x2="341" y2="356" stroke="#e08214" stroke-width="1"/>
		<text x="184" y="348.75" fill="#000000" font-family="Verdana" font-size="12">AVOIR_RACCORDEMENT</text>
	</g>
	<text x="347" y="373" fill="#542788" font-family="Verdana" font-size="12">1,1</text>
	<text x="150" y="373" fill="#542788" font-family="Verdana" font-size="12">1,N</text>
</g>

<!-- Association AVOIR_IMPLANTATION -->
<g>
	<line x1="446" y1="356" x2="629" y2="356" stroke="#e08214" stroke-width="2"/>
	<line x1="794" y1="356" x2="629" y2="356" stroke="#e08214" stroke-width="2"/>
	<g>
		<path d="M693 331 a14 14 90 0 1 14 14 V356 h-156 V345 a14 14 90 0 1 14 -14" fill="#fdb863" stroke="#fdb863" stroke-width="0"/>
		<path d="M707 356 v11 a14 14 90 0 1 -14 14 H565 a14 14 90 0 1 -14 -14 V356 H156" fill="#fee0b6" stroke="#fee0b6" stroke-width="0"/>
		<rect x="551" y="331" width="156" height="50" fill="none" rx="14" stroke="#e08214" stroke-width="2"/>
		<line x1="551" y1="356" x2="707" y2="356" stroke="#e08214" stroke-width="1"/>
		<text x="559" y="348.75" fill="#000000" font-family="Verdana" font-size="12">AVOIR_IMPLANTATION</text>
	</g>
	<text x="524" y="373" fill="#542788" font-family="Verdana" font-size="12">1,1</text>
	<text x="715" y="373" fill="#542788" font-family="Verdana" font-size="12">1,N</text>
</g>

<!-- Association AVOIR_OPERATEUR -->
<g>
	<line x1="259" y1="542" x2="446" y2="542" stroke="#e08214" stroke-width="2"/>
	<line x1="446" y1="356" x2="446" y2="542" stroke="#e08214" stroke-width="2"/>
	<g>
		<path d="M500 517 a14 14 90 0 1 14 14 V542 h-136 V531 a14 14 90 0 1 14 -14" fill="#fdb863" stroke="#fdb863" stroke-width="0"/>
		<path d="M514 542 v11 a14 14 90 0 1 -14 14 H392 a14 14 90 0 1 -14 -14 V542 H136" fill="#fee0b6" stroke="#fee0b6" stroke-width="0"/>
		<rect x="378" y="517" width="136" height="50" fill="none" rx="14" stroke="#e08214" stroke-width="2"/>
		<line x1="378" y1="542" x2="514" y2="542" stroke="#e08214" stroke-width="1"/>
		<text x="386" y="534.75" fill="#000000" font-family="Verdana" font-size="12">AVOIR_OPERATEUR</text>
	</g>
	<text x="306" y="559" fill="#542788" font-family="Verdana" font-size="12">0,N</text>
	<text x="419" y="509" fill="#542788" font-family="Verdana" font-size="12">1,N</text>
</g>

<!-- Association AVOIR_PRISE -->
<g>
	<line x1="794" y1="542" x2="629" y2="542" stroke="#e08214" stroke-width="2"/>
	<line x1="446" y1="356" x2="629" y2="542" stroke="#e08214" stroke-width="2"/>
	<g>
		<path d="M664 517 a14 14 90 0 1 14 14 V542 h-98 V531 a14 14 90 0 1 14 -14" fill="#fdb863" stroke="#fdb863" stroke-width="0"/>
		<path d="M678 542 v11 a14 14 90 0 1 -14 14 H594 a14 14 90 0 1 -14 -14 V542 H98" fill="#fee0b6" stroke="#fee0b6" stroke-width="0"/>
		<rect x="580" y="517" width="98" height="50" fill="none" rx="14" stroke="#e08214" stroke-width="2"/>
		<line x1="580" y1="542" x2="678" y2="542" stroke="#e08214" stroke-width="1"/>
		<text x="587" y="534.75" fill="#000000" font-family="Verdana" font-size="12">AVOIR_PRISE</text>
	</g>
	<text x="713" y="559" fill="#542788" font-family="Verdana" font-size="12">1,1</text>
	<text x="524" y="429.19" fill="#542788" font-family="Verdana" font-size="12">0,N</text>
</g>

<!-- Association AVOIR_TYPE_PRISE -->
<g>
	<line x1="794" y1="542" x2="949" y2="542" stroke="#e08214" stroke-width="2"/>
	<line x1="949" y1="356" x2="949" y2="542" stroke="#e08214" stroke-width="2"/>
	<g>
		<path d="M1003 517 a14 14 90 0 1 14 14 V542 h-136 V531 a14 14 90 0 1 14 -14" fill="#fdb863" stroke="#fdb863" stroke-width="0"/>
		<path d="M1017 542 v11 a14 14 90 0 1 -14 14 H895 a14 14 90 0 1 -14 -14 V542 H136" fill="#fee0b6" stroke="#fee0b6" stroke-width="0"/>
		<rect x="881" y="517" width="136" height="50" fill="none" rx="14" stroke="#e08214" stroke-width="2"/>
		<line x1="881" y1="542" x2="1017" y2="542" stroke="#e08214" stroke-width="1"/>
		<text x="888" y="534.75" fill="#000000" font-family="Verdana" font-size="12">AVOIR_TYPE_PRISE</text>
	</g>
	<text x="854" y="559" fill="#542788" font-family="Verdana" font-size="12">1,1</text>
	<text x="954" y="407" fill="#542788" font-family="Verdana" font-size="12">0,N</text>
</g>

<!-- Entity HORAIRE -->
<g>
	<g>
		<rect x="44" y="9" width="88" height="25" fill="#b2abd2" stroke="none" stroke-width="0" opacity="1"/>
		<rect x="44" y="34" width="88" height="77" fill="#d8daeb" stroke="none" stroke-width="0" opacity="1"/>
		<rect x="44" y="9" width="88" height="102" fill="none" stroke="#8073ac" stroke-width="2" opacity="1"/>
		<line x1="44" y1="34" x2="132" y2="34" stroke="#8073ac" stroke-width="1"/>
	</g>
	<text x="60" y="26.75" fill="#000000" font-family="Verdana" font-size="12">HORAIRE</text>
	<text x="49" y="51.8" fill="#000000" font-family="Verdana" font-size="12">id</text>
	<line x1="49" y1="54" x2="61" y2="54" stroke="#000000" stroke-width="1"/>
	<text x="49" y="68.8" fill="#000000" font-family="Verdana" font-size="12">jour</text>
	<text x="49" y="85.8" fill="#000000" font-family="Verdana" font-size="12">heure_debut</text>
	<text x="49" y="102.8" fill="#000000" font-family="Verdana" font-size="12">heure_fin</text>
</g>

<!-- Entity STATION_HORAIRE -->
<g>
	<g>
		<rect x="381" y="18" width="130" height="25" fill="#b2abd2" stroke="none" stroke-width="0" opacity="1"/>
		<rect x="381" y="43" width="130" height="59" fill="#d8daeb" stroke="none" stroke-width="0" opacity="1"/>
		<rect x="381" y="18" width="130" height="84" fill="none" stroke="#8073ac" stroke-width="2" opacity="1"/>
		<line x1="381" y1="43" x2="511" y2="43" stroke="#8073ac" stroke-width="1"/>
	</g>
	<text x="387" y="35.75" fill="#000000" font-family="Verdana" font-size="12">STATION_HORAIRE</text>
	<text x="386" y="60.8" fill="#000000" font-family="Verdana" font-size="12">id</text>
	<line x1="386" y1="63" x2="398" y2="63" stroke="#000000" stroke-width="1"/>
	<text x="386" y="77.8" fill="#000000" font-family="Verdana" font-size="12">id_station</text>
	<text x="386" y="94.8" fill="#000000" font-family="Verdana" font-size="12">id_horaire</text>
</g>

<!-- Entity CONDITION_ACCES -->
<g>
	<g>
		<rect x="728" y="26" width="132" height="25" fill="#b2abd2" stroke="none" stroke-width="0" opacity="1"/>
		<rect x="728" y="51" width="132" height="43" fill="#d8daeb" stroke="none" stroke-width="0" opacity="1"/>
		<rect x="728" y="26" width="132" height="68" fill="none" stroke="#8073ac" stroke-width="2" opacity="1"/>
		<line x1="728" y1="51" x2="860" y2="51" stroke="#8073ac" stroke-width="1"/>
	</g>
	<text x="733" y="43.75" fill="#000000" font-family="Verdana" font-size="12">CONDITION_ACCES</text>
	<text x="733" y="68.8" fill="#000000" font-family="Verdana" font-size="12">id</text>
	<line x1="733" y1="71" x2="745" y2="71" stroke="#000000" stroke-width="1"/>
	<text x="733" y="85.8" fill="#000000" font-family="Verdana" font-size="12">libelle</text>
</g>

<!-- Entity RESTRICTION_GABARIT -->
<g>
	<g>
		<rect x="9" y="136" width="158" height="25" fill="#b2abd2" stroke="none" stroke-width="0" opacity="1"/>
		<rect x="9" y="161" width="158" height="43" fill="#d8daeb" stroke="none" stroke-width="0" opacity="1"/>
		<rect x="9" y="136" width="158" height="68" fill="none" stroke="#8073ac" stroke-width="2" opacity="1"/>
		<line x1="9" y1="161" x2="167" y2="161" stroke="#8073ac" stroke-width="1"/>
	</g>
	<text x="14" y="153.75" fill="#000000" font-family="Verdana" font-size="12">RESTRICTION_GABARIT</text>
	<text x="14" y="178.8" fill="#000000" font-family="Verdana" font-size="12">id</text>
	<line x1="14" y1="181" x2="26" y2="181" stroke="#000000" stroke-width="1"/>
	<text x="14" y="195.8" fill="#000000" font-family="Verdana" font-size="12">libelle</text>
</g>

<!-- Entity ACCESSIBILITE_PMR -->
<g>
	<g>
		<rect x="725" y="136" width="138" height="25" fill="#b2abd2" stroke="none" stroke-width="0" opacity="1"/>
		<rect x="725" y="161" width="138" height="43" fill="#d8daeb" stroke="none" stroke-width="0" opacity="1"/>
		<rect x="725" y="136" width="138" height="68" fill="none" stroke="#8073ac" stroke-width="2" opacity="1"/>
		<line x1="725" y1="161" x2="863" y2="161" stroke="#8073ac" stroke-width="1"/>
	</g>
	<text x="730" y="153.75" fill="#000000" font-family="Verdana" font-size="12">ACCESSIBILITE_PMR</text>
	<text x="730" y="178.8" fill="#000000" font-family="Verdana" font-size="12">id</text>
	<line x1="730" y1="181" x2="742" y2="181" stroke="#000000" stroke-width="1"/>
	<text x="730" y="195.8" fill="#000000" font-family="Verdana" font-size="12">libelle</text>
</g>

<!-- Entity UTILISATEUR -->
<g>
	<g>
		<rect x="896" y="128" width="106" height="25" fill="#b2abd2" stroke="none" stroke-width="0" opacity="1"/>
		<rect x="896" y="153" width="106" height="59" fill="#d8daeb" stroke="none" stroke-width="0" opacity="1"/>
		<rect x="896" y="128" width="106" height="84" fill="none" stroke="#8073ac" stroke-width="2" opacity="1"/>
		<line x1="896" y1="153" x2="1002" y2="153" stroke="#8073ac" stroke-width="1"/>
	</g>
	<text x="908" y="145.75" fill="#000000" font-family="Verdana" font-size="12">UTILISATEUR</text>
	<text x="901" y="170.8" fill="#000000" font-family="Verdana" font-size="12">id</text>
	<line x1="901" y1="173" x2="913" y2="173" stroke="#000000" stroke-width="1"/>
	<text x="901" y="187.8" fill="#000000" font-family="Verdana" font-size="12">nom_utilisateur</text>
	<text x="901" y="204.8" fill="#000000" font-family="Verdana" font-size="12">mot_de_passe</text>
</g>

<!-- Entity RACCORDEMENT -->
<g>
	<g>
		<rect x="31" y="322" width="114" height="25" fill="#b2abd2" stroke="none" stroke-width="0" opacity="1"/>
		<rect x="31" y="347" width="114" height="43" fill="#d8daeb" stroke="none" stroke-width="0" opacity="1"/>
		<rect x="31" y="322" width="114" height="68" fill="none" stroke="#8073ac" stroke-width="2" opacity="1"/>
		<line x1="31" y1="347" x2="145" y2="347" stroke="#8073ac" stroke-width="1"/>
	</g>
	<text x="37" y="339.75" fill="#000000" font-family="Verdana" font-size="12">RACCORDEMENT</text>
	<text x="36" y="364.8" fill="#000000" font-family="Verdana" font-size="12">id</text>
	<line x1="36" y1="367" x2="48" y2="367" stroke="#000000" stroke-width="1"/>
	<text x="36" y="381.8" fill="#000000" font-family="Verdana" font-size="12">libelle</text>
</g>

<!-- Entity STATION -->
<g>
	<g>
		<rect x="373" y="220" width="146" height="25" fill="#b2abd2" stroke="none" stroke-width="0" opacity="1"/>
		<rect x="373" y="245" width="146" height="247" fill="#d8daeb" stroke="none" stroke-width="0" opacity="1"/>
		<rect x="373" y="220" width="146" height="272" fill="none" stroke="#8073ac" stroke-width="2" opacity="1"/>
		<line x1="373" y1="245" x2="519" y2="245" stroke="#8073ac" stroke-width="1"/>
	</g>
	<text x="418" y="237.75" fill="#000000" font-family="Verdana" font-size="12">STATION</text>
	<text x="378" y="262.8" fill="#000000" font-family="Verdana" font-size="12">id</text>
	<line x1="378" y1="265" x2="390" y2="265" stroke="#000000" stroke-width="1"/>
	<text x="378" y="279.8" fill="#000000" font-family="Verdana" font-size="12">nom_enseigne</text>
	<text x="378" y="296.8" fill="#000000" font-family="Verdana" font-size="12">adresse_station</text>
	<text x="378" y="313.8" fill="#000000" font-family="Verdana" font-size="12">longitude</text>
	<text x="378" y="330.8" fill="#000000" font-family="Verdana" font-size="12">latitude</text>
	<text x="378" y="347.8" fill="#000000" font-family="Verdana" font-size="12">tarif_eur_kwh</text>
	<text x="378" y="364.8" fill="#000000" font-family="Verdana" font-size="12">puissance_max_kw</text>
	<text x="378" y="381.8" fill="#000000" font-family="Verdana" font-size="12">nbre_pdc</text>
	<text x="378" y="398.8" fill="#000000" font-family="Verdana" font-size="12">reservation</text>
	<text x="378" y="415.8" fill="#000000" font-family="Verdana" font-size="12">cable_t2_attache</text>
	<text x="378" y="432.8" fill="#000000" font-family="Verdana" font-size="12">paiement_acte</text>
	<text x="378" y="449.8" fill="#000000" font-family="Verdana" font-size="12">paiement_cb</text>
	<text x="378" y="466.8" fill="#000000" font-family="Verdana" font-size="12">paiement_autre</text>
	<text x="378" y="483.8" fill="#000000" font-family="Verdana" font-size="12">date_mise_en_service</text>
</g>

<!-- Entity IMPLANTATION -->
<g>
	<g>
		<rect x="742" y="322" width="104" height="25" fill="#b2abd2" stroke="none" stroke-width="0" opacity="1"/>
		<rect x="742" y="347" width="104" height="43" fill="#d8daeb" stroke="none" stroke-width="0" opacity="1"/>
		<rect x="742" y="322" width="104" height="68" fill="none" stroke="#8073ac" stroke-width="2" opacity="1"/>
		<line x1="742" y1="347" x2="846" y2="347" stroke="#8073ac" stroke-width="1"/>
	</g>
	<text x="747" y="339.75" fill="#000000" font-family="Verdana" font-size="12">IMPLANTATION</text>
	<text x="747" y="364.8" fill="#000000" font-family="Verdana" font-size="12">id</text>
	<line x1="747" y1="367" x2="759" y2="367" stroke="#000000" stroke-width="1"/>
	<text x="747" y="381.8" fill="#000000" font-family="Verdana" font-size="12">libelle</text>
</g>

<!-- Entity TYPE_PRISE -->
<g>
	<g>
		<rect x="906" y="322" width="86" height="25" fill="#b2abd2" stroke="none" stroke-width="0" opacity="1"/>
		<rect x="906" y="347" width="86" height="43" fill="#d8daeb" stroke="none" stroke-width="0" opacity="1"/>
		<rect x="906" y="322" width="86" height="68" fill="none" stroke="#8073ac" stroke-width="2" opacity="1"/>
		<line x1="906" y1="347" x2="992" y2="347" stroke="#8073ac" stroke-width="1"/>
	</g>
	<text x="912" y="339.75" fill="#000000" font-family="Verdana" font-size="12">TYPE_PRISE</text>
	<text x="911" y="364.8" fill="#000000" font-family="Verdana" font-size="12">id</text>
	<line x1="911" y1="367" x2="923" y2="367" stroke="#000000" stroke-width="1"/>
	<text x="911" y="381.8" fill="#000000" font-family="Verdana" font-size="12">libelle</text>
</g>

<!-- Entity OPERATEUR -->
<g>
	<g>
		<rect x="217" y="491" width="84" height="25" fill="#b2abd2" stroke="none" stroke-width="0" opacity="1"/>
		<rect x="217" y="516" width="84" height="77" fill="#d8daeb" stroke="none" stroke-width="0" opacity="1"/>
		<rect x="217" y="491" width="84" height="102" fill="none" stroke="#8073ac" stroke-width="2" opacity="1"/>
		<line x1="217" y1="516" x2="301" y2="516" stroke="#8073ac" stroke-width="1"/>
	</g>
	<text x="222" y="508.75" fill="#000000" font-family="Verdana" font-size="12">OPERATEUR</text>
	<text x="222" y="533.8" fill="#000000" font-family="Verdana" font-size="12">id</text>
	<line x1="222" y1="536" x2="234" y2="536" stroke="#000000" stroke-width="1"/>
	<text x="222" y="550.8" fill="#000000" font-family="Verdana" font-size="12">nom</text>
	<text x="222" y="567.8" fill="#000000" font-family="Verdana" font-size="12">contact</text>
	<text x="222" y="584.8" fill="#000000" font-family="Verdana" font-size="12">telephone</text>
</g>

<!-- Entity STATION_PRISE -->
<g>
	<g>
		<rect x="739" y="500" width="110" height="25" fill="#b2abd2" stroke="none" stroke-width="0" opacity="1"/>
		<rect x="739" y="525" width="110" height="59" fill="#d8daeb" stroke="none" stroke-width="0" opacity="1"/>
		<rect x="739" y="500" width="110" height="84" fill="none" stroke="#8073ac" stroke-width="2" opacity="1"/>
		<line x1="739" y1="525" x2="849" y2="525" stroke="#8073ac" stroke-width="1"/>
	</g>
	<text x="744" y="517.75" fill="#000000" font-family="Verdana" font-size="12">STATION_PRISE</text>
	<text x="744" y="542.8" fill="#000000" font-family="Verdana" font-size="12">id</text>
	<line x1="744" y1="545" x2="756" y2="545" stroke="#000000" stroke-width="1"/>
	<text x="744" y="559.8" fill="#000000" font-family="Verdana" font-size="12">id_station</text>
	<text x="744" y="576.8" fill="#000000" font-family="Verdana" font-size="12">id_type_prise</text>
</g>
</svg>