<?xml version="1.0" encoding="utf-8"?>
<!-- Generated by Mocodo 4.3.2 -->
<svg width="1146" height="508" viewBox="0 0 1146 508" xmlns="http://www.w3.org/2000/svg">
<rect x="0" y="0" width="1146" height="508" fill="#f7f7f7" stroke="none" stroke-width="0"/>

<!-- Association AVOIR_PMR -->
<g>
	<line x1="601" y1="60" x2="418" y2="60" stroke="#8073ac" stroke-width="2"/>
	<line x1="418" y1="254" x2="418" y2="60" stroke="#8073ac" stroke-width="2"/>
	<g>
		<path d="M448 35 a14 14 90 0 1 14 14 V60 h-88 V49 a14 14 90 0 1 14 -14" fill="#b2abd2" stroke="#b2abd2" stroke-width="0"/>
		<path d="M462 60 v11 a14 14 90 0 1 -14 14 H388 a14 14 90 0 1 -14 -14 V60 H88" fill="#d8daeb" stroke="#d8daeb" stroke-width="0"/>
		<rect x="374" y="35" width="88" height="50" fill="none" rx="14" stroke="#8073ac" stroke-width="2"/>
		<line x1="374" y1="60" x2="462" y2="60" stroke="#8073ac" stroke-width="1"/>
		<text x="381" y="52.75" fill="#000000" font-family="Verdana" font-size="12">AVOIR_PMR</text>
	</g>
	<text x="505" y="77" fill="#b35806" font-family="Verdana" font-size="12">1,N</text>
	<text x="392" y="102" fill="#b35806" font-family="Verdana" font-size="12">1,1</text>
</g>

<!-- Association AVOIR_CONDITION -->
<g>
	<line x1="934" y1="60" x2="769" y2="60" stroke="#8073ac" stroke-width="2"/>
	<line x1="418" y1="254" x2="769" y2="60" stroke="#8073ac" stroke-width="2"/>
	<g>
		<path d="M822 35 a14 14 90 0 1 14 14 V60 h-134 V49 a14 14 90 0 1 14 -14" fill="#b2abd2" stroke="#b2abd2" stroke-width="0"/>
		<path d="M836 60 v11 a14 14 90 0 1 -14 14 H716 a14 14 90 0 1 -14 -14 V60 H134" fill="#d8daeb" stroke="#d8daeb" stroke-width="0"/>
		<rect x="702" y="35" width="134" height="50" fill="none" rx="14" stroke="#8073ac" stroke-width="2"/>
		<line x1="702" y1="60" x2="836" y2="60" stroke="#8073ac" stroke-width="1"/>
		<text x="709" y="52.75" fill="#000000" font-family="Verdana" font-size="12">AVOIR_CONDITION</text>
	</g>
	<text x="841" y="77" fill="#b35806" font-family="Verdana" font-size="12">1,N</text>
	<text x="496" y="226.35" fill="#b35806" font-family="Verdana" font-size="12">1,1</text>
</g>

<!-- Association AVOIR_TYPE_PRISE -->
<g>
	<line x1="77" y1="457" x2="77" y2="254" stroke="#8073ac" stroke-width="2"/>
	<line x1="77" y1="60" x2="77" y2="254" stroke="#8073ac" stroke-width="2"/>
	<g>
		<path d="M131 229 a14 14 90 0 1 14 14 V254 h-136 V243 a14 14 90 0 1 14 -14" fill="#b2abd2" stroke="#b2abd2" stroke-width="0"/>
		<path d="M145 254 v11 a14 14 90 0 1 -14 14 H23 a14 14 90 0 1 -14 -14 V254 H136" fill="#d8daeb" stroke="#d8daeb" stroke-width="0"/>
		<rect x="9" y="229" width="136" height="50" fill="none" rx="14" stroke="#8073ac" stroke-width="2"/>
		<line x1="9" y1="254" x2="145" y2="254" stroke="#8073ac" stroke-width="1"/>
		<text x="16" y="246.75" fill="#000000" font-family="Verdana" font-size="12">AVOIR_TYPE_PRISE</text>
	</g>
	<text x="82" y="407" fill="#b35806" font-family="Verdana" font-size="12">1,1</text>
	<text x="82" y="111" fill="#b35806" font-family="Verdana" font-size="12">0,N</text>
</g>

<!-- Association AVOIR_OPERATEUR -->
<g>
	<line x1="245" y1="60" x2="245" y2="254" stroke="#8073ac" stroke-width="2"/>
	<line x1="418" y1="254" x2="245" y2="254" stroke="#8073ac" stroke-width="2"/>
	<g>
		<path d="M299 229 a14 14 90 0 1 14 14 V254 h-136 V243 a14 14 90 0 1 14 -14" fill="#b2abd2" stroke="#b2abd2" stroke-width="0"/>
		<path d="M313 254 v11 a14 14 90 0 1 -14 14 H191 a14 14 90 0 1 -14 -14 V254 H136" fill="#d8daeb" stroke="#d8daeb" stroke-width="0"/>
		<rect x="177" y="229" width="136" height="50" fill="none" rx="14" stroke="#8073ac" stroke-width="2"/>
		<line x1="177" y1="254" x2="313" y2="254" stroke="#8073ac" stroke-width="1"/>
		<text x="185" y="246.75" fill="#000000" font-family="Verdana" font-size="12">AVOIR_OPERATEUR</text>
	</g>
	<text x="250" y="128" fill="#b35806" font-family="Verdana" font-size="12">1,N</text>
	<text x="318" y="246" fill="#b35806" font-family="Verdana" font-size="12">0,N</text>
</g>

<!-- Association AVOIR_IMPLANTATION -->
<g>
	<line x1="769" y1="254" x2="601" y2="254" stroke="#8073ac" stroke-width="2"/>
	<line x1="418" y1="254" x2="601" y2="254" stroke="#8073ac" stroke-width="2"/>
	<g>
		<path d="M665 229 a14 14 90 0 1 14 14 V254 h-156 V243 a14 14 90 0 1 14 -14" fill="#b2abd2" stroke="#b2abd2" stroke-width="0"/>
		<path d="M679 254 v11 a14 14 90 0 1 -14 14 H537 a14 14 90 0 1 -14 -14 V254 H156" fill="#d8daeb" stroke="#d8daeb" stroke-width="0"/>
		<rect x="523" y="229" width="156" height="50" fill="none" rx="14" stroke="#8073ac" stroke-width="2"/>
		<line x1="523" y1="254" x2="679" y2="254" stroke="#8073ac" stroke-width="1"/>
		<text x="531" y="246.75" fill="#000000" font-family="Verdana" font-size="12">AVOIR_IMPLANTATION</text>
	</g>
	<text x="690" y="271" fill="#b35806" font-family="Verdana" font-size="12">1,N</text>
	<text x="496" y="271" fill="#b35806" font-family="Verdana" font-size="12">1,1</text>
</g>

<!-- Association AVOIR_HORAIRE -->
<g>
	<line x1="1084" y1="254" x2="934" y2="254" stroke="#8073ac" stroke-width="2"/>
	<line x1="934" y1="457" x2="934" y2="254" stroke="#8073ac" stroke-width="2"/>
	<g>
		<path d="M979 229 a14 14 90 0 1 14 14 V254 h-118 V243 a14 14 90 0 1 14 -14" fill="#b2abd2" stroke="#b2abd2" stroke-width="0"/>
		<path d="M993 254 v11 a14 14 90 0 1 -14 14 H889 a14 14 90 0 1 -14 -14 V254 H118" fill="#d8daeb" stroke="#d8daeb" stroke-width="0"/>
		<rect x="875" y="229" width="118" height="50" fill="none" rx="14" stroke="#8073ac" stroke-width="2"/>
		<line x1="875" y1="254" x2="993" y2="254" stroke="#8073ac" stroke-width="1"/>
		<text x="882" y="246.75" fill="#000000" font-family="Verdana" font-size="12">AVOIR_HORAIRE</text>
	</g>
	<text x="1013" y="271" fill="#b35806" font-family="Verdana" font-size="12">0,N</text>
	<text x="939" y="407" fill="#b35806" font-family="Verdana" font-size="12">1,1</text>
</g>

<!-- Association AVOIR_PRISE -->
<g>
	<line x1="77" y1="457" x2="245" y2="457" stroke="#8073ac" stroke-width="2"/>
	<line x1="418" y1="254" x2="245" y2="457" stroke="#8073ac" stroke-width="2"/>
	<g>
		<path d="M280 432 a14 14 90 0 1 14 14 V457 h-98 V446 a14 14 90 0 1 14 -14" fill="#b2abd2" stroke="#b2abd2" stroke-width="0"/>
		<path d="M294 457 v11 a14 14 90 0 1 -14 14 H210 a14 14 90 0 1 -14 -14 V457 H98" fill="#d8daeb" stroke="#d8daeb" stroke-width="0"/>
		<rect x="196" y="432" width="98" height="50" fill="none" rx="14" stroke="#8073ac" stroke-width="2"/>
		<line x1="196" y1="457" x2="294" y2="457" stroke="#8073ac" stroke-width="1"/>
		<text x="203" y="449.75" fill="#000000" font-family="Verdana" font-size="12">AVOIR_PRISE</text>
	</g>
	<text x="137" y="474" fill="#b35806" font-family="Verdana" font-size="12">1,1</text>
	<text x="318" y="337.93" fill="#b35806" font-family="Verdana" font-size="12">0,N</text>
</g>

<!-- Association AVOIR_GABARIT -->
<g>
	<line x1="601" y1="457" x2="418" y2="457" stroke="#8073ac" stroke-width="2"/>
	<line x1="418" y1="254" x2="418" y2="457" stroke="#8073ac" stroke-width="2"/>
	<g>
		<path d="M463 432 a14 14 90 0 1 14 14 V457 h-118 V446 a14 14 90 0 1 14 -14" fill="#b2abd2" stroke="#b2abd2" stroke-width="0"/>
		<path d="M477 457 v11 a14 14 90 0 1 -14 14 H373 a14 14 90 0 1 -14 -14 V457 H118" fill="#d8daeb" stroke="#d8daeb" stroke-width="0"/>
		<rect x="359" y="432" width="118" height="50" fill="none" rx="14" stroke="#8073ac" stroke-width="2"/>
		<line x1="359" y1="457" x2="477" y2="457" stroke="#8073ac" stroke-width="1"/>
		<text x="367" y="449.75" fill="#000000" font-family="Verdana" font-size="12">AVOIR_GABARIT</text>
	</g>
	<text x="495" y="474" fill="#b35806" font-family="Verdana" font-size="12">1,N</text>
	<text x="423" y="415" fill="#b35806" font-family="Verdana" font-size="12">1,1</text>
</g>

<!-- Association AVOIR -->
<g>
	<line x1="418" y1="254" x2="769" y2="457" stroke="#8073ac" stroke-width="2"/>
	<line x1="934" y1="457" x2="769" y2="457" stroke="#8073ac" stroke-width="2"/>
	<g>
		<path d="M782 432 a14 14 90 0 1 14 14 V457 h-54 V446 a14 14 90 0 1 14 -14" fill="#b2abd2" stroke="#b2abd2" stroke-width="0"/>
		<path d="M796 457 v11 a14 14 90 0 1 -14 14 H756 a14 14 90 0 1 -14 -14 V457 H54" fill="#d8daeb" stroke="#d8daeb" stroke-width="0"/>
		<rect x="742" y="432" width="54" height="50" fill="none" rx="14" stroke="#8073ac" stroke-width="2"/>
		<line x1="742" y1="457" x2="796" y2="457" stroke="#8073ac" stroke-width="1"/>
		<text x="749" y="449.75" fill="#000000" font-family="Verdana" font-size="12">AVOIR</text>
	</g>
	<text x="496" y="292.71" fill="#b35806" font-family="Verdana" font-size="12">0,N</text>
	<text x="843" y="474" fill="#b35806" font-family="Verdana" font-size="12">1,1</text>
</g>

<!-- Entity TYPE_PRISE -->
<g>
	<g>
		<rect x="34" y="26" width="86" height="25" fill="#fdb863" stroke="none" stroke-width="0" opacity="1"/>
		<rect x="34" y="51" width="86" height="43" fill="#fee0b6" stroke="none" stroke-width="0" opacity="1"/>
		<rect x="34" y="26" width="86" height="68" fill="none" stroke="#e08214" stroke-width="2" opacity="1"/>
		<line x1="34" y1="51" x2="120" y2="51" stroke="#e08214" stroke-width="1"/>
	</g>
	<text x="40" y="43.75" fill="#000000" font-family="Verdana" font-size="12">TYPE_PRISE</text>
	<text x="39" y="68.8" fill="#000000" font-family="Verdana" font-size="12">id</text>
	<line x1="39" y1="71" x2="51" y2="71" stroke="#000000" stroke-width="1"/>
	<text x="39" y="85.8" fill="#000000" font-family="Verdana" font-size="12">libelle</text>
</g>

<!-- Entity OPERATEUR -->
<g>
	<g>
		<rect x="203" y="9" width="84" height="25" fill="#fdb863" stroke="none" stroke-width="0" opacity="1"/>
		<rect x="203" y="34" width="84" height="77" fill="#fee0b6" stroke="none" stroke-width="0" opacity="1"/>
		<rect x="203" y="9" width="84" height="102" fill="none" stroke="#e08214" stroke-width="2" opacity="1"/>
		<line x1="203" y1="34" x2="287" y2="34" stroke="#e08214" stroke-width="1"/>
	</g>
	<text x="208" y="26.75" fill="#000000" font-family="Verdana" font-size="12">OPERATEUR</text>
	<text x="208" y="51.8" fill="#000000" font-family="Verdana" font-size="12">id</text>
	<line x1="208" y1="54" x2="220" y2="54" stroke="#000000" stroke-width="1"/>
	<text x="208" y="68.8" fill="#000000" font-family="Verdana" font-size="12">nom</text>
	<text x="208" y="85.8" fill="#000000" font-family="Verdana" font-size="12">contact</text>
	<text x="208" y="102.8" fill="#000000" font-family="Verdana" font-size="12">telephone</text>
</g>

<!-- Entity ACCESSIBILITE_PMR -->
<g>
	<g>
		<rect x="532" y="26" width="138" height="25" fill="#fdb863" stroke="none" stroke-width="0" opacity="1"/>
		<rect x="532" y="51" width="138" height="43" fill="#fee0b6" stroke="none" stroke-width="0" opacity="1"/>
		<rect x="532" y="26" width="138" height="68" fill="none" stroke="#e08214" stroke-width="2" opacity="1"/>
		<line x1="532" y1="51" x2="670" y2="51" stroke="#e08214" stroke-width="1"/>
	</g>
	<text x="537" y="43.75" fill="#000000" font-family="Verdana" font-size="12">ACCESSIBILITE_PMR</text>
	<text x="537" y="68.8" fill="#000000" font-family="Verdana" font-size="12">id</text>
	<line x1="537" y1="71" x2="549" y2="71" stroke="#000000" stroke-width="1"/>
	<text x="537" y="85.8" fill="#000000" font-family="Verdana" font-size="12">libelle</text>
</g>

<!-- Entity CONDITION_ACCES -->
<g>
	<g>
		<rect x="868" y="26" width="132" height="25" fill="#fdb863" stroke="none" stroke-width="0" opacity="1"/>
		<rect x="868" y="51" width="132" height="43" fill="#fee0b6" stroke="none" stroke-width="0" opacity="1"/>
		<rect x="868" y="26" width="132" height="68" fill="none" stroke="#e08214" stroke-width="2" opacity="1"/>
		<line x1="868" y1="51" x2="1000" y2="51" stroke="#e08214" stroke-width="1"/>
	</g>
	<text x="873" y="43.75" fill="#000000" font-family="Verdana" font-size="12">CONDITION_ACCES</text>
	<text x="873" y="68.8" fill="#000000" font-family="Verdana" font-size="12">id</text>
	<line x1="873" y1="71" x2="885" y2="71" stroke="#000000" stroke-width="1"/>
	<text x="873" y="85.8" fill="#000000" font-family="Verdana" font-size="12">libelle</text>
</g>

<!-- Entity STATION -->
<g>
	<g>
		<rect x="345" y="110" width="146" height="25" fill="#fdb863" stroke="none" stroke-width="0" opacity="1"/>
		<rect x="345" y="135" width="146" height="263" fill="#fee0b6" stroke="none" stroke-width="0" opacity="1"/>
		<rect x="345" y="110" width="146" height="288" fill="none" stroke="#e08214" stroke-width="2" opacity="1"/>
		<line x1="345" y1="135" x2="491" y2="135" stroke="#e08214" stroke-width="1"/>
	</g>
	<text x="390" y="127.75" fill="#000000" font-family="Verdana" font-size="12">STATION</text>
	<text x="350" y="152.8" fill="#000000" font-family="Verdana" font-size="12">id_station</text>
	<line x1="350" y1="155" x2="410" y2="155" stroke="#000000" stroke-width="1"/>
	<text x="350" y="169.8" fill="#000000" font-family="Verdana" font-size="12">nom_enseigne</text>
	<text x="350" y="186.8" fill="#000000" font-family="Verdana" font-size="12">adresse_station</text>
	<text x="350" y="203.8" fill="#000000" font-family="Verdana" font-size="12">longitude</text>
	<text x="350" y="220.8" fill="#000000" font-family="Verdana" font-size="12">latitude</text>
	<text x="350" y="237.8" fill="#000000" font-family="Verdana" font-size="12">tarif_eur_kwh</text>
	<text x="350" y="254.8" fill="#000000" font-family="Verdana" font-size="12">puissance_max_kw</text>
	<text x="350" y="271.8" fill="#000000" font-family="Verdana" font-size="12">nbre_pdc</text>
	<text x="350" y="288.8" fill="#000000" font-family="Verdana" font-size="12">reservation</text>
	<text x="350" y="305.8" fill="#000000" font-family="Verdana" font-size="12">date_mise_en_service</text>
	<text x="350" y="322.8" fill="#000000" font-family="Verdana" font-size="12">id_operateur</text>
	<text x="350" y="339.8" fill="#000000" font-family="Verdana" font-size="12">id_condition_acces</text>
	<text x="350" y="356.8" fill="#000000" font-family="Verdana" font-size="12">id_restriction_gabarit</text>
	<text x="350" y="373.8" fill="#000000" font-family="Verdana" font-size="12">id_accessibilite_pmr</text>
	<text x="350" y="390.8" fill="#000000" font-family="Verdana" font-size="12">id_implantation</text>
</g>

<!-- Entity IMPLANTATION -->
<g>
	<g>
		<rect x="717" y="220" width="104" height="25" fill="#fdb863" stroke="none" stroke-width="0" opacity="1"/>
		<rect x="717" y="245" width="104" height="43" fill="#fee0b6" stroke="none" stroke-width="0" opacity="1"/>
		<rect x="717" y="220" width="104" height="68" fill="none" stroke="#e08214" stroke-width="2" opacity="1"/>
		<line x1="717" y1="245" x2="821" y2="245" stroke="#e08214" stroke-width="1"/>
	</g>
	<text x="722" y="237.75" fill="#000000" font-family="Verdana" font-size="12">IMPLANTATION</text>
	<text x="722" y="262.8" fill="#000000" font-family="Verdana" font-size="12">id</text>
	<line x1="722" y1="265" x2="734" y2="265" stroke="#000000" stroke-width="1"/>
	<text x="722" y="279.8" fill="#000000" font-family="Verdana" font-size="12">libelle</text>
</g>

<!-- Entity HORAIRE -->
<g>
	<g>
		<rect x="1040" y="203" width="88" height="25" fill="#fdb863" stroke="none" stroke-width="0" opacity="1"/>
		<rect x="1040" y="228" width="88" height="77" fill="#fee0b6" stroke="none" stroke-width="0" opacity="1"/>
		<rect x="1040" y="203" width="88" height="102" fill="none" stroke="#e08214" stroke-width="2" opacity="1"/>
		<line x1="1040" y1="228" x2="1128" y2="228" stroke="#e08214" stroke-width="1"/>
	</g>
	<text x="1056" y="220.75" fill="#000000" font-family="Verdana" font-size="12">HORAIRE</text>
	<text x="1045" y="245.8" fill="#000000" font-family="Verdana" font-size="12">id</text>
	<line x1="1045" y1="248" x2="1057" y2="248" stroke="#000000" stroke-width="1"/>
	<text x="1045" y="262.8" fill="#000000" font-family="Verdana" font-size="12">jour</text>
	<text x="1045" y="279.8" fill="#000000" font-family="Verdana" font-size="12">heure_debut</text>
	<text x="1045" y="296.8" fill="#000000" font-family="Verdana" font-size="12">heure_fin</text>
</g>

<!-- Entity STATION_PRISE -->
<g>
	<g>
		<rect x="22" y="415" width="110" height="25" fill="#fdb863" stroke="none" stroke-width="0" opacity="1"/>
		<rect x="22" y="440" width="110" height="59" fill="#fee0b6" stroke="none" stroke-width="0" opacity="1"/>
		<rect x="22" y="415" width="110" height="84" fill="none" stroke="#e08214" stroke-width="2" opacity="1"/>
		<line x1="22" y1="440" x2="132" y2="440" stroke="#e08214" stroke-width="1"/>
	</g>
	<text x="27" y="432.75" fill="#000000" font-family="Verdana" font-size="12">STATION_PRISE</text>
	<text x="27" y="457.8" fill="#000000" font-family="Verdana" font-size="12">id</text>
	<line x1="27" y1="460" x2="39" y2="460" stroke="#000000" stroke-width="1"/>
	<text x="27" y="474.8" fill="#000000" font-family="Verdana" font-size="12">id_station</text>
	<text x="27" y="491.8" fill="#000000" font-family="Verdana" font-size="12">id_type_prise</text>
</g>

<!-- Entity RESTRICTION_GABARIT -->
<g>
	<g>
		<rect x="522" y="423" width="158" height="25" fill="#fdb863" stroke="none" stroke-width="0" opacity="1"/>
		<rect x="522" y="448" width="158" height="43" fill="#fee0b6" stroke="none" stroke-width="0" opacity="1"/>
		<rect x="522" y="423" width="158" height="68" fill="none" stroke="#e08214" stroke-width="2" opacity="1"/>
		<line x1="522" y1="448" x2="680" y2="448" stroke="#e08214" stroke-width="1"/>
	</g>
	<text x="527" y="440.75" fill="#000000" font-family="Verdana" font-size="12">RESTRICTION_GABARIT</text>
	<text x="527" y="465.8" fill="#000000" font-family="Verdana" font-size="12">id</text>
	<line x1="527" y1="468" x2="539" y2="468" stroke="#000000" stroke-width="1"/>
	<text x="527" y="482.8" fill="#000000" font-family="Verdana" font-size="12">libelle</text>
</g>

<!-- Entity STATION_HORAIRE -->
<g>
	<g>
		<rect x="869" y="415" width="130" height="25" fill="#fdb863" stroke="none" stroke-width="0" opacity="1"/>
		<rect x="869" y="440" width="130" height="59" fill="#fee0b6" stroke="none" stroke-width="0" opacity="1"/>
		<rect x="869" y="415" width="130" height="84" fill="none" stroke="#e08214" stroke-width="2" opacity="1"/>
		<line x1="869" y1="440" x2="999" y2="440" stroke="#e08214" stroke-width="1"/>
	</g>
	<text x="875" y="432.75" fill="#000000" font-family="Verdana" font-size="12">STATION_HORAIRE</text>
	<text x="874" y="457.8" fill="#000000" font-family="Verdana" font-size="12">id</text>
	<line x1="874" y1="460" x2="886" y2="460" stroke="#000000" stroke-width="1"/>
	<text x="874" y="474.8" fill="#000000" font-family="Verdana" font-size="12">id_station</text>
	<text x="874" y="491.8" fill="#000000" font-family="Verdana" font-size="12">id_horaire</text>
</g>

<!-- Entity UTILISATEUR -->
<g>
	<g>
		<rect x="1031" y="415" width="106" height="25" fill="#fdb863" stroke="none" stroke-width="0" opacity="1"/>
		<rect x="1031" y="440" width="106" height="59" fill="#fee0b6" stroke="none" stroke-width="0" opacity="1"/>
		<rect x="1031" y="415" width="106" height="84" fill="none" stroke="#e08214" stroke-width="2" opacity="1"/>
		<line x1="1031" y1="440" x2="1137" y2="440" stroke="#e08214" stroke-width="1"/>
	</g>
	<text x="1043" y="432.75" fill="#000000" font-family="Verdana" font-size="12">UTILISATEUR</text>
	<text x="1036" y="457.8" fill="#000000" font-family="Verdana" font-size="12">id</text>
	<line x1="1036" y1="460" x2="1048" y2="460" stroke="#000000" stroke-width="1"/>
	<text x="1036" y="474.8" fill="#000000" font-family="Verdana" font-size="12">nom_utilisateur</text>
	<text x="1036" y="491.8" fill="#000000" font-family="Verdana" font-size="12">mot_de_passe</text>
</g>
</svg>